# xmcd CD database file
#
# Track frame offsets:
#	150
#	24742
#	52138
#	66040
#	82523
#	99780
#	114381
#	135135
#	149093
#
# Disc length: 2424 seconds
#
# Revision: 0
# Processed by: cddbd v1.5.2PL0 Copyright (c) Steve Scherf et al.
# Submitted via: CDex 1.70beta2
#
DISCID=6d097609
DTITLE=The Cathouse Blues Band - Take It Downtown
DYEAR=2004
DGENRE=Blues
TTITLE0=Take It Downtown
TTITLE1=How Do You Spend Your Time
TTITLE2=Show Me Some Respect
TTITLE3=Blues In The Morning
TTITLE4=Set You Free
TTITLE5=Find Me In The Middle
TTITLE6=Caroline, Would You Mind
TTITLE7=Spanky's Blues
TTITLE8=These Old Friends Of Mine
EXTD=YEAR: 2004
EXTT0=
EXTT1=
EXTT2=
EXTT3=
EXTT4=
EXTT5=
EXTT6=
EXTT7=
EXTT8=
PLAYORDER=
